<svg width="29" height="28" viewBox="0 0 29 28" fill="none" xmlns="http://www.w3.org/2000/svg">
<path d="M26.0889 19.1926H9.34278L10.1836 17.5273L24.1542 17.5027C24.6266 17.5027 25.0316 17.1746 25.1159 16.7207L27.0507 6.19062C27.1013 5.91445 27.0254 5.63008 26.8398 5.41406C26.748 5.30775 26.6336 5.22211 26.5044 5.16309C26.3753 5.10407 26.2345 5.07308 26.0917 5.07227L8.31917 5.01484L8.16732 4.32031C8.07171 3.87734 7.66114 3.55469 7.19433 3.55469H2.84961C2.58634 3.55469 2.33384 3.65638 2.14768 3.8374C1.96152 4.01841 1.85693 4.26393 1.85693 4.51992C1.85693 4.77592 1.96152 5.02143 2.14768 5.20245C2.33384 5.38346 2.58634 5.48516 2.84961 5.48516H6.39006L7.05372 8.55312L8.68756 16.2449L6.5841 19.5836C6.47486 19.727 6.40907 19.8972 6.39416 20.075C6.37925 20.2528 6.41582 20.4312 6.49974 20.5898C6.66846 20.9152 7.00873 21.1203 7.38555 21.1203H9.15156C8.77507 21.6065 8.57171 22.1988 8.57226 22.8074C8.57226 24.3551 9.86584 25.6129 11.4575 25.6129C13.0492 25.6129 14.3427 24.3551 14.3427 22.8074C14.3427 22.1977 14.1346 21.6043 13.7634 21.1203H18.2937C17.9173 21.6065 17.7139 22.1988 17.7144 22.8074C17.7144 24.3551 19.008 25.6129 20.5997 25.6129C22.1913 25.6129 23.4849 24.3551 23.4849 22.8074C23.4849 22.1977 23.2768 21.6043 22.9056 21.1203H26.0917C26.6373 21.1203 27.0844 20.6883 27.0844 20.1551C27.0828 19.8994 26.9772 19.6546 26.7907 19.4743C26.6042 19.294 26.3519 19.1927 26.0889 19.1926ZM8.73255 6.91797L24.9247 6.96992L23.3387 15.6051L10.6195 15.627L8.73255 6.91797ZM11.4575 23.6715C10.9682 23.6715 10.5689 23.2832 10.5689 22.8074C10.5689 22.3316 10.9682 21.9434 11.4575 21.9434C11.9468 21.9434 12.3461 22.3316 12.3461 22.8074C12.3461 23.0366 12.2525 23.2564 12.0858 23.4184C11.9192 23.5805 11.6932 23.6715 11.4575 23.6715ZM20.5997 23.6715C20.1104 23.6715 19.711 23.2832 19.711 22.8074C19.711 22.3316 20.1104 21.9434 20.5997 21.9434C21.089 21.9434 21.4883 22.3316 21.4883 22.8074C21.4883 23.0366 21.3947 23.2564 21.228 23.4184C21.0614 23.5805 20.8354 23.6715 20.5997 23.6715Z" fill="black"/>
</svg>
